<svg width="27" height="24" xmlns="http://www.w3.org/2000/svg">

 <g>
  <title>background</title>
  <rect fill="none" id="canvas_background" height="26" width="29" y="-1" x="-1"/>
 </g>
 <g>
  <title>Layer 1</title>
  <g id="svg_1">
   <rect id="svg_2" height="1" width="3" fill="#63C74D" y="7.39628" x="13.39628"/>
   <rect id="svg_3" height="1" width="1" fill="#63C74D" y="7.39628" x="11.39628"/>
   <rect id="svg_4" height="1" width="1" fill="#63C74D" y="5.39628" x="15.39628"/>
   <rect id="svg_5" height="1" width="3" fill="#63C74D" y="5.39628" x="11.39628"/>
   <rect id="svg_6" height="1" width="1" fill="#63C74D" y="5.39628" x="9.39628"/>
   <polygon id="svg_7" points="24.396276473999023,4.396276473999023 23.396276473999023,4.396276473999023 23.396276473999023,1.3962764739990234 19.396276473999023,1.3962764739990234 19.396276473999023,16.396276473999023 18.396276473999023,16.396276473999023 18.396276473999023,17.396276473999023 20.396276473999023,17.396276473999023 20.396276473999023,23.396276473999023 25.396276473999023,23.396276473999023 25.396276473999023,17.396276473999023 23.396276473999023,17.396276473999023 23.396276473999023,16.396276473999023 24.396276473999023,16.396276473999023 24.396276473999023,15.396276473999023 25.396276473999023,15.396276473999023 25.396276473999023,14.396276473999023 23.396276473999023,14.396276473999023 23.396276473999023,13.396276473999023 25.396276473999023,13.396276473999023 25.396276473999023,12.396276473999023 23.396276473999023,12.396276473999023 23.396276473999023,11.396276473999023 25.396276473999023,11.396276473999023 25.396276473999023,10.396276473999023 23.396276473999023,10.396276473999023 23.396276473999023,9.396276473999023 25.396276473999023,9.396276473999023 25.396276473999023,8.396276473999023 23.396276473999023,8.396276473999023 23.396276473999023,7.396276473999023 25.396276473999023,7.396276473999023 25.396276473999023,5.396276473999023 24.396276473999023,5.396276473999023 " fill="#5A6988"/>
   <rect id="svg_8" height="1" width="1" fill="#ECF0F1" y="5.39628" x="5.39628"/>
   <rect id="svg_9" height="1" width="1" fill="#ECF0F1" y="4.39628" x="6.39628"/>
   <rect id="svg_10" height="13" width="1" fill="#ECF0F1" y="2.39628" x="17.39628"/>
   <rect id="svg_11" height="1" width="1" fill="#C0CCDC" y="20.39628" x="17.39628"/>
   <rect id="svg_12" height="1" width="1" fill="#C0CCDC" y="20.39628" x="15.39628"/>
   <rect id="svg_13" height="1" width="1" fill="#C0CCDC" y="19.39628" x="16.39628"/>
   <path id="svg_14" d="m1.39628,23.39628l19,0l0,-6l-19,0l0,6zm13,-3l1,0l0,-1l-1,0l0,-1l1,0l0,1l1,0l0,-1l1,0l0,1l1,0l0,-1l1,0l0,1l-1,0l0,1l1,0l0,1l-1,0l0,1l-1,0l0,-1l-1,0l0,1l-1,0l0,-1l-1,0l0,-1zm-11,-1l6,0l0,1l-6,0l0,-1z" fill="#C0CCDC"/>
   <rect id="svg_15" height="1" width="1" fill="#C0CCDC" y="6.39628" x="5.39628"/>
   <path id="svg_16" d="m19.39628,1.39628l-17,0l0,15l17,0l0,-15zm-1,14l-15,0l0,-13l15,0l0,13z" fill="#C0CCDC"/>
   <rect id="svg_17" height="1" width="1" fill="#8B9BB5" y="21.39628" x="17.39628"/>
   <rect id="svg_18" height="1" width="1" fill="#8B9BB5" y="21.39628" x="15.39628"/>
   <rect id="svg_19" height="1" width="1" fill="#8B9BB5" y="20.39628" x="18.39628"/>
   <rect id="svg_20" height="1" width="1" fill="#8B9BB5" y="20.39628" x="16.39628"/>
   <rect id="svg_21" height="1" width="1" fill="#8B9BB5" y="20.39628" x="14.39628"/>
   <rect id="svg_22" height="1" width="1" fill="#8B9BB5" y="19.39628" x="17.39628"/>
   <rect id="svg_23" height="1" width="1" fill="#8B9BB5" y="19.39628" x="15.39628"/>
   <rect id="svg_24" height="1" width="6" fill="#8B9BB5" y="19.39628" x="3.39628"/>
   <rect id="svg_25" height="1" width="1" fill="#8B9BB5" y="18.39628" x="18.39628"/>
   <rect id="svg_26" height="1" width="1" fill="#8B9BB5" y="18.39628" x="16.39628"/>
   <rect id="svg_27" height="1" width="1" fill="#8B9BB5" y="18.39628" x="14.39628"/>
   <rect id="svg_28" height="1" width="14" fill="#8B9BB5" y="16.39628" x="4.39628"/>
   <polygon id="svg_29" points="3.3962764739990234,2.3962764739990234 3.3962764739990234,15.396276473999023 5.396276473999023,15.396276473999023 5.396276473999023,14.396276473999023 4.396276473999023,14.396276473999023 4.396276473999023,4.396276473999023 5.396276473999023,4.396276473999023 5.396276473999023,3.3962764739990234 17.396276473999023,3.3962764739990234 17.396276473999023,2.3962764739990234 " fill="#8B9BB5"/>
   <path id="svg_30" d="m5.39628,15.39628l12,0l0,-12l-12,0l0,1l-1,0l0,10l1,0l0,1zm9,-9l-3,0l0,-1l3,0l0,1zm-2,2l-1,0l0,-1l1,0l0,1zm-2,-2l-1,0l0,-1l1,0l0,1zm6,2l-3,0l0,-1l3,0l0,1zm0,-2l-1,0l0,-1l1,0l0,1zm-11,-1l1,0l0,-1l1,0l0,1l-1,0l0,2l-1,0l0,-2z" fill="#3A4467"/>
   <rect id="svg_31" height="1" width="2" fill="#3A4467" y="13.39628" x="23.39628"/>
   <rect id="svg_32" height="1" width="2" fill="#3A4467" y="11.39628" x="23.39628"/>
   <rect id="svg_33" height="1" width="2" fill="#3A4467" y="9.39628" x="23.39628"/>
   <rect id="svg_34" height="1" width="2" fill="#3A4467" y="7.39628" x="23.39628"/>
  </g>
 </g>
</svg>